<svg width="93" height="17" viewBox="0 0 93 17" fill="none" xmlns="http://www.w3.org/2000/svg">
<path d="M3.75155 9.53704H5.37259C7.00906 9.53704 8.24414 10.0648 8.24414 11.9253C8.24414 13.7857 7.0245 14.3267 5.2182 14.3267H3.76699L3.75155 9.53704ZM3.75155 3.13762H5.11013C6.97819 3.13762 7.81186 3.6918 7.81186 5.20919C7.81186 6.72657 6.91643 7.30714 4.8168 7.30714H3.75155V3.13762ZM0 0.762573V16.6886H6.34521C10.7297 16.6886 12.1655 14.5246 12.1655 12.0308C12.1655 9.8933 10.8532 8.57383 8.76905 8.32313V8.27035C10.6525 7.82173 11.5943 6.51546 11.5943 4.80015C11.5943 1.75218 9.37115 0.762573 6.29889 0.762573H0ZM33.6404 3.54665H33.7022L35.5085 10.7114H31.865L33.6404 3.54665ZM17.6153 3.13762H19.3907C21.1353 3.13762 21.9998 3.87652 21.9998 5.35433C21.9998 7.06964 20.9809 7.74257 19.19 7.74257H17.6307C17.6153 7.74257 17.6153 3.13762 17.6153 3.13762ZM31.3401 0.762573L26.4615 16.5434C25.7977 16.2004 25.6896 15.3691 25.6587 13.7066C25.5815 10.3287 25.211 9.1412 22.6482 8.85092V8.79814C24.7633 8.4155 25.7668 7.01686 25.7668 4.86612C25.7668 2.12163 23.8987 0.762573 20.8111 0.762573H13.8637V16.6886H17.6307V9.97247H19.6377C21.1661 9.97247 21.7837 10.7378 21.8609 11.9781L21.9689 15.026C21.9998 15.6462 22.0461 16.2531 22.4475 16.6886H26.5233H30.352L31.2166 13.3107H36.1723L37.0369 16.6886H40.9582L36.0179 0.762573H31.3401ZM50.4992 0.762573V11.6746H50.4529L45.914 0.762573H41.5758V16.6886H45.0186V5.52586H45.0803L49.681 16.6886H53.9729V0.762573H50.4992ZM59.8395 3.13762H61.4297C64.2703 3.13762 64.6409 4.99807 64.6409 8.61342C64.6409 12.9413 64.116 14.3531 61.5223 14.3531H59.8549L59.8395 3.13762ZM56.0725 0.762573V16.6886H62.0009C66.9875 16.6886 68.4078 14.1156 68.4078 8.50786C68.4078 3.79735 67.4352 0.775768 62.2479 0.775768L56.0725 0.762573Z" fill="#063844"/>
<path d="M87.3976 4.92085H87.3358L83.7541 10.9244H87.3976V4.92085ZM90.8558 13.4182V16.7036H87.413V13.4182H80.8362V10.7793L86.9653 0.896484H90.8558V10.9244H92.6312V13.4182H90.8558ZM80.4348 16.7036H69.0413C69.0413 13.8932 70.369 11.9536 73.117 9.78966L74.63 8.57576C76.2973 7.33546 76.5598 6.57017 76.5598 4.96043C76.5598 3.65416 75.9577 3.00762 74.7226 3.00762C72.8546 3.00762 72.6384 4.40626 72.6384 6.08197H69.0413V5.48821C69.0413 2.54581 70.8167 0.922874 74.7844 0.922874C78.5205 0.922874 80.3268 2.49303 80.3268 5.22432C80.3268 7.26949 79.5394 8.62854 77.4552 10.2383L75.371 11.8876C74.2595 12.7585 73.6419 13.6029 73.4721 14.1967H80.4348V16.7036Z" fill="#063844"/>
</svg>
