<svg xmlns="http://www.w3.org/2000/svg" width="69.151" height="50.199" viewBox="0 0 69.151 50.199">
  <path id="Subtraction_3" data-name="Subtraction 3" d="M235.248,140.2h-.1a39.713,39.713,0,0,1-1.446-10.648A39.616,39.616,0,0,0,196.849,90H266v.219a17.122,17.122,0,0,0-5.687,1.1,24.989,24.989,0,0,0-5.46,2.894,79.1,79.1,0,0,0-10.043,8.774L244.8,103c-.92.9-1.87,1.825-2.818,2.724-.491,1.174-1.031,2.4-1.554,3.578-2.554,5.773-5.448,12.317-6.3,20.528a48.2,48.2,0,0,0,1.119,10.373Z" transform="translate(-196.849 -90)" fill="#6fcdd6"/>
</svg>
