<svg width="363" height="520" viewBox="0 0 363 520" fill="none" xmlns="http://www.w3.org/2000/svg">
<mask id="mask0" mask-type="alpha" maskUnits="userSpaceOnUse" x="0" y="0" width="363" height="520">
<rect width="363" height="520" fill="#C4C4C4"/>
</mask>
<g mask="url(#mask0)">
<g opacity="0.3" filter="url(#filter0_d)">
<path d="M206.257 139.775C291.362 84.1815 438.039 -71.0248 504.731 -171.51L714.647 -201C727.767 182.372 738.918 895.379 678.568 680.429C618.217 465.478 452.257 433.842 357.134 480.551C292.629 512.225 138.691 548.706 38.9808 441.231C-85.6565 306.886 120.984 195.479 206.257 139.775Z" fill="#3CB187"/>
<path d="M206.257 139.775C291.362 84.1815 438.039 -71.0248 504.731 -171.51L714.647 -201C727.767 182.372 738.918 895.379 678.568 680.429C618.217 465.478 452.257 433.842 357.134 480.551C292.629 512.225 138.691 548.706 38.9808 441.231C-85.6565 306.886 120.984 195.479 206.257 139.775Z" fill="url(#paint0_linear)"/>
</g>
</g>
<defs>
<filter id="filter0_d" x="-30" y="-216" width="785" height="981" filterUnits="userSpaceOnUse" color-interpolation-filters="sRGB">
<feFlood flood-opacity="0" result="BackgroundImageFix"/>
<feColorMatrix in="SourceAlpha" type="matrix" values="0 0 0 0 0 0 0 0 0 0 0 0 0 0 0 0 0 0 127 0"/>
<feOffset dy="15"/>
<feGaussianBlur stdDeviation="15"/>
<feColorMatrix type="matrix" values="0 0 0 0 0 0 0 0 0 0 0 0 0 0 0 0 0 0 0.1 0"/>
<feBlend mode="normal" in2="BackgroundImageFix" result="effect1_dropShadow"/>
<feBlend mode="normal" in="SourceGraphic" in2="effect1_dropShadow" result="shape"/>
</filter>
<linearGradient id="paint0_linear" x1="580" y1="259.5" x2="-244.909" y2="874.071" gradientUnits="userSpaceOnUse">
<stop stop-color="#6FCDD6"/>
<stop offset="1" stop-color="white" stop-opacity="0"/>
</linearGradient>
</defs>
</svg>
