<svg width="363" height="520" viewBox="0 0 363 520" fill="none" xmlns="http://www.w3.org/2000/svg">
<mask id="mask0" mask-type="alpha" maskUnits="userSpaceOnUse" x="0" y="0" width="363" height="520">
<rect width="363" height="520" fill="#C4C4C4"/>
</mask>
<g mask="url(#mask0)">
<g opacity="0.3" filter="url(#filter0_d)">
<path d="M81.3523 379.225C-34.8598 434.818 -235.15 590.025 -326.218 690.51L-612.863 720C-630.778 336.628 -646.006 -376.379 -563.596 -161.429C-481.186 53.522 -254.565 85.158 -124.673 38.4492C-36.5898 6.7746 173.616 -29.7059 309.771 77.7695C479.965 212.114 197.794 323.521 81.3523 379.225Z" fill="#3CB187"/>
<path d="M81.3523 379.225C-34.8598 434.818 -235.15 590.025 -326.218 690.51L-612.863 720C-630.778 336.628 -646.006 -376.379 -563.596 -161.429C-481.186 53.522 -254.565 85.158 -124.673 38.4492C-36.5898 6.7746 173.616 -29.7059 309.771 77.7695C479.965 212.114 197.794 323.521 81.3523 379.225Z" fill="url(#paint0_linear)"/>
</g>
</g>
<defs>
<filter id="filter0_d" x="-657" y="-216" width="1050" height="981" filterUnits="userSpaceOnUse" color-interpolation-filters="sRGB">
<feFlood flood-opacity="0" result="BackgroundImageFix"/>
<feColorMatrix in="SourceAlpha" type="matrix" values="0 0 0 0 0 0 0 0 0 0 0 0 0 0 0 0 0 0 127 0"/>
<feOffset dy="15"/>
<feGaussianBlur stdDeviation="15"/>
<feColorMatrix type="matrix" values="0 0 0 0 0 0 0 0 0 0 0 0 0 0 0 0 0 0 0.1 0"/>
<feBlend mode="normal" in2="BackgroundImageFix" result="effect1_dropShadow"/>
<feBlend mode="normal" in="SourceGraphic" in2="effect1_dropShadow" result="shape"/>
</filter>
<linearGradient id="paint0_linear" x1="-429" y1="259.5" x2="431.776" y2="-616.197" gradientUnits="userSpaceOnUse">
<stop stop-color="#6FCDD6"/>
<stop offset="1" stop-color="white" stop-opacity="0"/>
</linearGradient>
</defs>
</svg>
