<svg width="183" height="37" viewBox="0 0 183 37" fill="none" xmlns="http://www.w3.org/2000/svg">
<path fill-rule="evenodd" clip-rule="evenodd" d="M62.7389 26.6208L63.0647 32.1837C62.2242 32.5895 61.1527 32.7927 59.8484 32.7927C57.2411 32.7927 55.1363 32.007 53.5359 30.4343C51.9349 28.863 51.1344 26.6859 51.1344 23.9045V16.5592H47.0706V10.5835H51.1344V4.84634H57.4146V10.5835H62.7821V16.5592H57.4146V23.5781C57.4146 24.5779 57.741 25.3862 58.3925 26.0015C59.0447 26.6176 59.8413 26.9252 60.7831 26.9252C61.5075 26.9252 62.159 26.824 62.7389 26.6208Z" fill="black"/>
<path fill-rule="evenodd" clip-rule="evenodd" d="M85.666 20.5577C85.666 21.4414 85.6079 22.26 85.4918 23.0134H69.7809C70.0699 24.4912 70.7001 25.6175 71.6709 26.3928C72.6417 27.1676 73.8802 27.5552 75.387 27.5552C76.372 27.5552 77.3177 27.3456 78.2233 26.925C79.1284 26.5051 79.7695 25.969 80.1462 25.3169L85.0358 28.3157C84.2391 29.7645 82.9787 30.8876 81.2545 31.6842C79.5302 32.4809 77.5312 32.8795 75.2567 32.8795C72.0405 32.8795 69.3203 31.7752 67.0968 29.5652C64.8727 27.3566 63.7612 24.6363 63.7612 21.4053C63.7612 18.2322 64.8585 15.563 67.0536 13.3976C69.2481 11.2321 71.9392 10.1484 75.1264 10.1484C78.0814 10.1484 80.5772 11.1554 82.6129 13.1692C84.6481 15.1831 85.666 17.6459 85.666 20.5577ZM69.8673 19.0147H79.3857C79.2554 17.9284 78.7478 17.0228 77.8647 16.2984C76.9803 15.574 75.9592 15.2121 74.8007 15.2121C73.4964 15.2121 72.4243 15.5456 71.5844 16.2113C70.7439 16.8783 70.1718 17.8123 69.8673 19.0147Z" fill="black"/>
<path fill-rule="evenodd" clip-rule="evenodd" d="M103.769 10.5832H110.049V32.4448H103.769V29.8587C103.233 30.7573 102.367 31.4849 101.172 32.0429C99.977 32.6002 98.6908 32.8789 97.3149 32.8789C95.4455 32.8789 93.729 32.3725 92.1641 31.3578C90.5999 30.3445 89.3685 28.9641 88.4699 27.2185C87.572 25.473 87.123 23.5643 87.123 21.4924C87.123 18.3342 88.1113 15.654 90.089 13.4518C92.0667 11.2496 94.4747 10.1485 97.3149 10.1485C98.676 10.1485 99.9583 10.431 101.161 10.9961C102.363 11.5611 103.233 12.2855 103.769 13.1693V10.5832ZM98.7056 26.925C99.7629 26.925 100.752 26.6715 101.672 26.1645C102.591 25.6575 103.291 25.0053 103.769 24.2087V18.8625C103.291 18.0368 102.591 17.3634 101.672 16.8415C100.752 16.3203 99.7629 16.0591 98.7056 16.0591C97.1698 16.0591 95.8803 16.5777 94.8372 17.613C93.7942 18.649 93.273 19.9417 93.273 21.4924C93.273 23.0424 93.7942 24.3358 94.8372 25.3711C95.8803 26.407 97.1698 26.925 98.7056 26.925Z" fill="black"/>
<path fill-rule="evenodd" clip-rule="evenodd" d="M138.844 10.1484C141.466 10.1484 143.61 10.949 145.276 12.55C146.942 14.151 147.775 16.2552 147.775 18.8625V32.4447H141.452V20.1668C141.452 18.8625 141.111 17.8304 140.431 17.0699C139.749 16.3093 138.829 15.9288 137.67 15.9288C136.902 15.9288 136.156 16.15 135.432 16.5919C134.707 17.0337 134.15 17.5879 133.759 18.2542V32.4447H127.479V20.1668C127.479 18.8773 127.134 17.8491 126.446 17.0808C125.758 16.3132 124.885 15.9288 123.828 15.9288C122.929 15.9288 122.125 16.1539 121.416 16.6028C120.705 17.0518 120.177 17.6459 119.829 18.3845V32.4447H113.549V10.5832H119.829V13.0821C120.408 12.2565 121.234 11.5611 122.306 10.996C123.379 10.431 124.631 10.1484 126.066 10.1484C128.876 10.1484 130.904 11.1696 132.151 13.2124C132.874 12.3577 133.831 11.634 135.019 11.0393C136.207 10.4458 137.482 10.1484 138.844 10.1484Z" fill="black"/>
<path fill-rule="evenodd" clip-rule="evenodd" d="M151.709 1.11917C152.462 0.373487 153.361 0 154.404 0C155.447 0 156.345 0.373487 157.099 1.11917C157.851 1.8655 158.229 2.75309 158.229 3.78131C158.229 4.82436 157.851 5.72292 157.099 6.47634C156.345 7.22912 155.447 7.60583 154.404 7.60583C153.361 7.60583 152.462 7.22912 151.709 6.47634C150.956 5.72292 150.579 4.82436 150.579 3.78131C150.579 2.75309 150.956 1.8655 151.709 1.11917ZM151.274 32.4449H157.555V10.5834H151.274V32.4449Z" fill="black"/>
<path fill-rule="evenodd" clip-rule="evenodd" d="M171.529 10.1484C173.108 10.1484 174.596 10.4387 175.995 11.018C177.393 11.5972 178.595 12.3906 179.602 13.3976C180.609 14.4045 181.406 15.614 181.993 17.0267C182.58 18.4387 182.873 19.9423 182.873 21.5356C182.873 23.6656 182.376 25.5994 181.384 27.3378C180.392 29.0763 179.03 30.4347 177.299 31.4126C175.567 32.3905 173.644 32.8795 171.529 32.8795C168.298 32.8795 165.597 31.8003 163.423 29.6413C161.25 27.483 160.163 24.7815 160.163 21.5356C160.163 18.291 161.25 15.5811 163.423 13.4079C165.597 11.2347 168.298 10.1484 171.529 10.1484ZM171.529 16.1462C170.037 16.1462 168.794 16.657 167.802 17.6782C166.81 18.6999 166.313 19.9855 166.313 21.5356C166.313 23.0424 166.81 24.31 167.802 25.3388C168.794 26.3677 170.037 26.8818 171.529 26.8818C172.992 26.8818 174.224 26.3677 175.223 25.3388C176.223 24.31 176.723 23.0424 176.723 21.5356C176.723 19.9855 176.226 18.6999 175.234 17.6782C174.242 16.657 173.007 16.1462 171.529 16.1462Z" fill="black"/>
<path fill-rule="evenodd" clip-rule="evenodd" d="M21.9172 6.10352e-05V7.61363H29.3863V15.0937H36.7328V6.52349C36.7328 2.92022 33.8127 6.10352e-05 30.2101 6.10352e-05H21.9172Z" fill="#EDB32E"/>
<path fill-rule="evenodd" clip-rule="evenodd" d="M0 22.3072V6.52334C0 2.92071 2.92081 0.000549316 6.53311 0.000549316H21.9164V7.6109H29.3861V15.0942H14.693V7.61413H7.213V22.3072H0Z" fill="#70CCD6"/>
<path fill-rule="evenodd" clip-rule="evenodd" d="M29.3865 15.094V29.787H21.9064V22.307H7.21338V29.787H14.6934V37H30.2102C33.8128 37 36.733 34.0798 36.733 30.4772V15.094H29.3865Z" fill="#E04066"/>
<path fill-rule="evenodd" clip-rule="evenodd" d="M0 22.307H7.213V29.787H14.7376V37H6.52343C2.92081 37 0 34.0798 0 30.4772V22.307Z" fill="#3DB087"/>
</svg>
