<svg width="145" height="142" viewBox="0 0 145 142" fill="none" xmlns="http://www.w3.org/2000/svg">
<mask id="mask0" mask-type="alpha" maskUnits="userSpaceOnUse" x="0" y="0" width="82" height="112">
<rect width="81.612" height="111.233" fill="#C4C4C4"/>
</mask>
<g mask="url(#mask0)">
<path d="M73.5584 59.8952H72.8174V39.9463C72.8174 36.8843 71.5801 33.9476 69.3777 31.7824C67.1754 29.6172 64.1883 28.4008 61.0736 28.4008H18.0833C14.9686 28.4008 11.9816 29.6172 9.77917 31.7824C7.57677 33.9476 6.33948 36.8843 6.33948 39.9463V149.388C6.33948 152.45 7.57677 155.387 9.77917 157.552C11.9816 159.717 14.9686 160.933 18.0833 160.933H61.0734C64.1881 160.933 67.1752 159.717 69.3776 157.552C71.58 155.387 72.8172 152.45 72.8172 149.388V74.0952H73.5582L73.5584 59.8952Z" fill="#3F3D56"/>
<path d="M61.5471 31.4041H55.9355C56.1937 32.0261 56.2923 32.7011 56.2226 33.3694C56.1529 34.0378 55.9171 34.679 55.536 35.2366C55.1548 35.7943 54.64 36.2512 54.0368 36.5671C53.4337 36.883 52.7608 37.0483 52.0774 37.0483H27.449C26.7657 37.0482 26.0929 36.883 25.4898 36.567C24.8868 36.2511 24.372 35.7943 23.9909 35.2367C23.6098 34.6792 23.3739 34.038 23.3042 33.3697C23.2345 32.7015 23.333 32.0266 23.5911 31.4046H18.349C16.0229 31.4046 13.7921 32.313 12.1473 33.93C10.5026 35.5471 9.57855 37.7402 9.57855 40.027V149.307C9.57855 151.594 10.5026 153.787 12.1473 155.404C13.7921 157.021 16.0229 157.93 18.349 157.93H61.5455C63.8715 157.93 66.1023 157.021 67.7471 155.404C69.3919 153.787 70.3159 151.594 70.3159 149.307V40.0264C70.3159 37.7396 69.3919 35.5465 67.7471 33.9295C66.1023 32.3125 63.8715 31.4041 61.5455 31.4041H61.5471Z" fill="white"/>
<path d="M64.8222 52.8912H15.0746V136.442H64.8222V52.8912Z" fill="#E6E6E6"/>
<path d="M67.4545 55.6863H14.2014V66.0228H67.4545V55.6863Z" fill="#E6E6E6"/>
<path d="M15.3368 64.907H66.3195V56.8032H15.3368V64.907Z" fill="white"/>
<path d="M19.7996 57.7C20.4207 57.7 21.0279 57.881 21.5444 58.2203C22.0609 58.5596 22.4634 59.0418 22.7011 59.606C22.9388 60.1702 23.001 60.791 22.8799 61.3899C22.7587 61.9889 22.4596 62.539 22.0203 62.9708C21.5811 63.4027 21.0215 63.6967 20.4123 63.8159C19.8031 63.935 19.1716 63.8738 18.5977 63.6402C18.0238 63.4065 17.5333 63.0107 17.1882 62.503C16.8431 61.9952 16.6589 61.3982 16.6589 60.7876C16.6589 59.9687 16.9898 59.1833 17.5788 58.6043C18.1678 58.0253 18.9666 57.7 19.7996 57.7V57.7Z" fill="#ECB22D"/>
<path d="M58.3058 59.5793H27.3098V60.2506H58.3058V59.5793Z" fill="#E6E6E6"/>
<path d="M58.3058 61.3243H27.3098V61.9956H58.3058V61.3243Z" fill="#E6E6E6"/>
<path d="M67.4545 69.9791H14.2014V80.3157H67.4545V69.9791Z" fill="#E6E6E6"/>
<path d="M15.3368 79.1998H66.3195V71.0961H15.3368V79.1998Z" fill="white"/>
<path d="M19.7996 78.168C21.5341 78.168 22.9402 76.7857 22.9402 75.0804C22.9402 73.3752 21.5341 71.9928 19.7996 71.9928C18.065 71.9928 16.6589 73.3752 16.6589 75.0804C16.6589 76.7857 18.065 78.168 19.7996 78.168Z" fill="#ECB22D"/>
<path d="M58.3058 73.8722H27.3098V74.5434H58.3058V73.8722Z" fill="#E6E6E6"/>
<path d="M58.3058 75.6174H27.3098V76.2887H58.3058V75.6174Z" fill="#E6E6E6"/>
<path d="M67.4545 84.2719H14.2014V94.6084H67.4545V84.2719Z" fill="#E6E6E6"/>
<path d="M15.3368 93.4925H66.3195V85.3888H15.3368V93.4925Z" fill="white"/>
<path d="M19.7996 92.4608C21.5341 92.4608 22.9402 91.0784 22.9402 89.3731C22.9402 87.6679 21.5341 86.2855 19.7996 86.2855C18.065 86.2855 16.6589 87.6679 16.6589 89.3731C16.6589 91.0784 18.065 92.4608 19.7996 92.4608Z" fill="#ECB22D"/>
<path d="M58.3058 88.1649H27.3098V88.8362H58.3058V88.1649Z" fill="#E6E6E6"/>
<path d="M58.3058 89.9099H27.3098V90.5811H58.3058V89.9099Z" fill="#E6E6E6"/>
</g>
<path fill-rule="evenodd" clip-rule="evenodd" d="M104.706 44.3729C104.706 44.3729 105.892 52.7903 109.452 58.4016C114.585 66.4942 107.968 67.5574 109.303 73.1691C110.638 78.7804 120.872 83.5061 108.71 96.3536C100.75 104.762 91.2085 88.3793 91.2085 88.3793L88.5387 66.9669L104.706 44.3729Z" fill="#828282"/>
<path fill-rule="evenodd" clip-rule="evenodd" d="M100.778 58.0679C99.494 57.1101 98.2459 56.1204 97.0258 55.1055L88.5386 65.5784L91.2083 84.4843C91.2083 84.4843 93.5702 88.0634 96.9234 90.7472C97.7942 89.7867 99.8415 94.2417 100.998 93.843C104.854 92.514 111.825 85.1306 106.782 79.5189C100.759 72.8165 107.968 65.1948 100.778 58.0679Z" fill="#4F4F4F"/>
<path fill-rule="evenodd" clip-rule="evenodd" d="M94.8589 85.1359C91.0847 83.0865 92.1139 73.1783 92.1139 73.1783L86.4615 73.5412V73.1797L85.8568 73.3604L85.2521 73.1797V73.5412L79.5998 73.1783C79.5998 73.1783 80.629 83.0865 76.8548 85.1359C73.0806 87.1857 50.7787 88.2104 53.1806 111.098H118.534C120.935 88.2104 98.633 87.1857 94.8589 85.1359Z" fill="#EB8F75"/>
<path fill-rule="evenodd" clip-rule="evenodd" d="M78.8074 82.5802C83.3224 81.9104 87.8339 81.2188 92.3427 80.5064C91.7086 77.0903 92.114 73.1785 92.114 73.1785L86.4616 73.5413V73.1798L85.8569 73.3605L85.2522 73.1798V73.5413L79.5994 73.1785C79.5994 73.1785 80.1957 78.9355 78.8074 82.5802Z" fill="#CA7761"/>
<path fill-rule="evenodd" clip-rule="evenodd" d="M100.136 102.113C99.1328 97.1027 99.3704 91.779 100.593 86.869C99.6383 86.593 98.747 86.3577 97.9537 86.1447C97.5937 90.2807 97.1064 94.4805 95.5433 98.2067C94.9413 99.6417 94.2146 100.933 93.3737 102.113H100.136Z" fill="#262129"/>
<path fill-rule="evenodd" clip-rule="evenodd" d="M107.005 89.0229C103.273 94.107 95.2736 97.6219 86.005 97.6219C76.7369 97.6219 68.7378 94.107 65.0055 89.0229C58.3644 92.1409 51.8195 98.1203 53.1811 111.098H118.829C120.191 98.1203 113.646 92.1409 107.005 89.0229Z" fill="#ECB22D"/>
<path fill-rule="evenodd" clip-rule="evenodd" d="M84.3116 105.066C97.4945 105.066 109.033 101.27 115.381 95.5938C113.124 92.5201 110.075 90.4645 107.005 89.0229C103.273 94.107 95.2737 97.6219 86.0051 97.6219C76.737 97.6219 68.7379 94.107 65.006 89.0229C61.3791 90.7259 57.7843 93.2852 55.4869 97.3685C62.1133 102.046 72.5566 105.066 84.3116 105.066Z" fill="#53938C"/>
<path fill-rule="evenodd" clip-rule="evenodd" d="M74.8054 58.6757C73.6934 55.2409 71.0601 56.0362 70.8136 56.119C70.5551 56.1491 67.8332 56.5514 68.3036 60.1301C68.7766 63.7296 70.8746 65.6807 72.8413 65.1074C74.8659 64.788 75.924 62.1312 74.8054 58.6757Z" fill="#CA7761"/>
<path fill-rule="evenodd" clip-rule="evenodd" d="M97.0099 58.6757C98.1219 55.2409 100.755 56.0362 101.002 56.119C101.26 56.1491 103.982 56.5514 103.512 60.1301C103.039 63.7296 100.941 65.6807 98.974 65.1074C96.9494 64.788 95.8913 62.1312 97.0099 58.6757Z" fill="#CA7761"/>
<path fill-rule="evenodd" clip-rule="evenodd" d="M72.1076 53.4725C73.4856 38.4138 84.9839 39.2573 86.0682 39.3708C87.1526 39.2573 98.6509 38.4138 100.029 53.4725C101.415 68.6206 94.6382 78.5137 86.0682 77.9696C77.4983 78.5137 70.7215 68.6206 72.1076 53.4725Z" fill="#EB8F75"/>
<path fill-rule="evenodd" clip-rule="evenodd" d="M77.7853 41.3457C77.7853 41.3457 79.1945 52.7902 90.6149 55.0053L87.797 47.9905C87.797 47.9905 88.7612 56.4819 100.108 56.0389C100.108 56.0389 104.261 57.9585 102.778 62.3886C102.778 62.3886 106.856 58.9925 105.299 53.2332C103.741 47.474 107.375 47.1045 101.591 38.6136C96.4889 31.1244 79.7877 30.2702 77.7853 41.3457Z" fill="#4F4F4F"/>
<path fill-rule="evenodd" clip-rule="evenodd" d="M80.9743 38.9091C80.9743 38.9091 75.4861 34.4789 71.3333 39.4997C67.1805 44.5204 68.2186 52.3472 64.3621 57.2204C60.506 62.0936 61.0992 66.3758 65.8456 70.954C70.5915 75.5317 52.4967 79.8144 58.2812 91.1849C64.0657 102.556 78.4527 96.5011 79.4908 87.4932C80.5293 78.4853 79.9358 76.5653 79.9358 76.5653C79.9358 76.5653 73.8549 71.84 72.8164 64.3087C71.7783 56.7774 73.5581 53.0853 76.821 50.4272C80.0844 47.7691 83.0505 45.4064 80.9743 38.9091Z" fill="#4F4F4F"/>
<path fill-rule="evenodd" clip-rule="evenodd" d="M60.951 85.8687C59.7416 83.5437 59.5654 81.734 59.9975 80.2556C57.5564 83.0453 55.9069 86.5177 58.2812 91.1849C64.0657 102.556 78.4527 96.5011 79.4908 87.4932C79.5139 87.2934 79.5353 87.1016 79.5567 86.9084C75.0042 90.4893 65.4158 94.4522 60.951 85.8687Z" fill="#BDBDBD"/>
<path fill-rule="evenodd" clip-rule="evenodd" d="M88.051 61.0012C88.2406 61.349 88.387 61.7056 88.5191 62.0654C88.65 62.4255 88.7608 62.7897 88.8595 63.1565C88.912 63.3395 88.9485 63.5255 88.9939 63.7098C89.0406 63.8937 89.0758 64.0802 89.1096 64.2667C89.1839 64.6384 89.2364 65.015 89.2787 65.3933L89.2987 65.5705L89.2022 65.6582C88.8938 65.9396 88.577 66.2129 88.2548 66.4809C87.9273 66.7441 87.6021 67.009 87.2505 67.2491C87.4784 66.8903 87.7329 66.5571 87.9852 66.2222C88.2428 65.8917 88.5053 65.5665 88.7768 65.2498L88.7002 65.5143C88.5859 65.151 88.4822 64.785 88.4003 64.4147C88.3558 64.2304 88.3127 64.0456 88.2811 63.8587C88.2482 63.6717 88.2068 63.4866 88.181 63.2983C88.1231 62.923 88.0777 62.5451 88.0519 62.1633C88.0275 61.7809 88.0177 61.3955 88.051 61.0012Z" fill="#9E6050"/>
<path fill-rule="evenodd" clip-rule="evenodd" d="M91.9302 69.9541C89.1928 72.6033 84.5558 72.4563 81.0438 70.0954L91.9302 69.9541Z" fill="#FFFFFE"/>
<path fill-rule="evenodd" clip-rule="evenodd" d="M96.9116 55.8949C96.9116 55.8949 96.7919 55.8289 96.5823 55.7133C96.4804 55.6579 96.3567 55.5906 96.2152 55.5135C96.0764 55.4404 95.9198 55.3576 95.7484 55.2676C95.5718 55.1923 95.3956 55.0913 95.1976 55.0142C95.1019 54.9717 95.0036 54.9278 94.9035 54.8835C94.802 54.8468 94.6983 54.8091 94.5929 54.771C94.3882 54.6806 94.1648 54.6474 93.9521 54.5725C93.7319 54.5499 93.5152 54.4662 93.2949 54.4751L92.967 54.448C92.8593 54.4609 92.7512 54.4644 92.6431 54.4706C92.4241 54.4613 92.2208 54.5424 92.0094 54.5685C91.799 54.6018 91.6099 54.7032 91.4118 54.7551L91.2654 54.8007L91.1324 54.8676C91.0421 54.9097 90.9544 54.9504 90.8703 54.9894C90.7035 55.0718 90.5322 55.1316 90.4031 55.2207C90.2705 55.304 90.1446 55.3686 90.0414 55.4253C89.8331 55.5374 89.7001 55.5959 89.7001 55.5959C89.7001 55.5959 89.7526 55.4701 89.87 55.2592C89.9292 55.1542 90.0004 55.0235 90.0943 54.8818C90.1771 54.7289 90.3083 54.5898 90.4574 54.4392C90.6114 54.2948 90.7502 54.0958 90.9682 53.97C91.1809 53.8402 91.3914 53.6648 91.6557 53.5673C91.7861 53.5146 91.9222 53.4676 92.0606 53.4194C92.1963 53.3613 92.3427 53.3365 92.4927 53.3197C92.6417 53.2989 92.7926 53.2758 92.9447 53.2621C93.096 53.2639 93.2486 53.2745 93.4008 53.2833C93.7096 53.2896 93.9948 53.391 94.281 53.4606C94.4185 53.5097 94.5497 53.5691 94.6801 53.6258C94.8122 53.6785 94.9364 53.7401 95.0499 53.8154C95.1655 53.8863 95.2799 53.9528 95.3876 54.025C95.4881 54.1043 95.5869 54.1822 95.683 54.2575C95.8775 54.4037 96.0248 54.5832 96.1725 54.7294C96.4493 55.0439 96.6402 55.3328 96.7527 55.5485C96.8698 55.7612 96.9116 55.8949 96.9116 55.8949Z" fill="#262129"/>
<path fill-rule="evenodd" clip-rule="evenodd" d="M82.5886 55.8949C82.5886 55.8949 82.4689 55.8289 82.2594 55.7133C82.1575 55.6579 82.0342 55.5906 81.8923 55.5135C81.7534 55.4404 81.5968 55.3576 81.4255 55.2676C81.2489 55.1923 81.0726 55.0913 80.8746 55.0142C80.779 54.9717 80.6806 54.9278 80.5805 54.8835C80.4791 54.8468 80.3754 54.8091 80.2699 54.771C80.0653 54.6806 79.8419 54.6474 79.6296 54.5725C79.4089 54.5499 79.1922 54.4662 78.972 54.4751L78.644 54.448C78.5364 54.4609 78.4282 54.4644 78.3206 54.4706C78.1012 54.4613 77.8978 54.5424 77.6865 54.5685C77.476 54.6018 77.2869 54.7032 77.0889 54.7551L76.943 54.8007L76.8095 54.8676C76.7191 54.9097 76.6315 54.9504 76.5478 54.9894C76.3805 55.0718 76.2092 55.1316 76.0806 55.2207C75.948 55.304 75.8217 55.3686 75.7184 55.4253C75.5106 55.5374 75.3771 55.5959 75.3771 55.5959C75.3771 55.5959 75.4301 55.4701 75.5471 55.2592C75.6063 55.1542 75.6775 55.0235 75.7714 54.8818C75.8541 54.7289 75.9854 54.5898 76.1345 54.4392C76.2884 54.2948 76.4272 54.0958 76.6453 53.97C76.858 53.8402 77.0684 53.6648 77.3327 53.5673C77.4631 53.5146 77.5993 53.4676 77.7377 53.4194C77.8734 53.3613 78.0202 53.3365 78.1697 53.3197C78.3188 53.2989 78.4696 53.2758 78.6218 53.2621C78.7735 53.2639 78.9257 53.2745 79.0779 53.2833C79.3867 53.2896 79.6719 53.391 79.9585 53.4606C80.0955 53.5097 80.2268 53.5691 80.3572 53.6258C80.4893 53.6785 80.6139 53.7401 80.7269 53.8154C80.8426 53.8863 80.9574 53.9528 81.0646 54.025C81.1656 54.1043 81.264 54.1822 81.3601 54.2575C81.555 54.4037 81.7018 54.5832 81.8496 54.7294C82.1263 55.0439 82.3172 55.3328 82.4298 55.5485C82.5468 55.7612 82.5886 55.8949 82.5886 55.8949Z" fill="#262129"/>
<path fill-rule="evenodd" clip-rule="evenodd" d="M82.1344 61.3515C82.1344 61.3515 82.1032 61.2293 82.0334 61.0246C81.9635 60.8203 81.8549 60.5319 81.6854 60.2165C81.5136 59.9042 81.2738 59.5639 80.9396 59.3159C80.7746 59.1905 80.5854 59.0908 80.3803 59.0283C80.2793 58.9929 80.1761 58.9601 80.0644 58.9526C79.9554 58.938 79.8477 58.9154 79.7329 58.9264C79.627 58.9309 79.4922 58.9171 79.4099 58.9326C79.2942 58.9544 79.1491 58.9601 79.0597 58.9951C78.879 59.054 78.6734 59.1223 78.5177 59.2512C78.3517 59.3646 78.2231 59.5201 78.1075 59.6747C78.0033 59.8377 77.9143 60.0048 77.8489 60.1696C77.7199 60.5 77.6545 60.8013 77.6162 61.0131C77.5784 61.2257 77.5673 61.3515 77.5673 61.3515C77.5673 61.3515 77.5334 61.2301 77.5108 61.0095C77.4903 60.7898 77.4769 60.4677 77.5561 60.0836C77.5944 59.8913 77.6607 59.6844 77.7644 59.4758C77.8774 59.2733 78.014 59.054 78.2236 58.8888C78.4203 58.7107 78.6654 58.58 78.9502 58.4958C79.0917 58.448 79.1985 58.4462 79.3249 58.4192C79.4868 58.3908 79.6034 58.405 79.7454 58.3975C79.8806 58.3899 80.0177 58.4183 80.1538 58.4405C80.2909 58.4555 80.4221 58.4985 80.5516 58.5472C80.6851 58.584 80.8039 58.6527 80.9187 58.7235C81.0393 58.7851 81.1372 58.8755 81.2369 58.9575C81.6267 59.3021 81.8434 59.7314 81.9644 60.0973C82.0885 60.4659 82.1237 60.7849 82.1366 61.0051C82.1477 61.2266 82.1344 61.3515 82.1344 61.3515Z" fill="#262129"/>
<path fill-rule="evenodd" clip-rule="evenodd" d="M95.6043 61.3515C95.6043 61.3515 95.5732 61.2293 95.5033 61.0246C95.4335 60.8203 95.3249 60.5319 95.1554 60.2165C94.9836 59.9042 94.7438 59.5639 94.4096 59.3159C94.2445 59.1905 94.0554 59.0908 93.8503 59.0283C93.7493 58.9929 93.646 58.9601 93.5344 58.9526C93.4253 58.938 93.3177 58.9154 93.2029 58.9264C93.097 58.9309 92.9621 58.9171 92.8798 58.9326C92.7641 58.9544 92.6191 58.9601 92.5296 58.9951C92.349 59.054 92.1434 59.1223 91.9877 59.2512C91.8217 59.3646 91.6931 59.5201 91.5774 59.6747C91.4733 59.8377 91.3843 60.0048 91.3189 60.1696C91.1899 60.5 91.1244 60.8013 91.0862 61.0131C91.0484 61.2257 91.0372 61.3515 91.0372 61.3515C91.0372 61.3515 91.0034 61.2301 90.9807 61.0095C90.9603 60.7898 90.9469 60.4677 91.0261 60.0836C91.0644 59.8913 91.1307 59.6844 91.2344 59.4758C91.3474 59.2733 91.484 59.054 91.6936 58.8888C91.8902 58.7107 92.1354 58.58 92.4202 58.4958C92.5617 58.448 92.6685 58.4462 92.7948 58.4192C92.9568 58.3908 93.0734 58.405 93.2153 58.3975C93.3506 58.3899 93.4876 58.4183 93.6238 58.4405C93.7608 58.4555 93.8921 58.4985 94.0216 58.5472C94.1551 58.584 94.2739 58.6527 94.3887 58.7235C94.5093 58.7851 94.6072 58.8755 94.7068 58.9575C95.0966 59.3021 95.3133 59.7314 95.4344 60.0973C95.5585 60.4659 95.5937 60.7849 95.6066 61.0051C95.6177 61.2266 95.6043 61.3515 95.6043 61.3515Z" fill="#262129"/>
</svg>
