<svg width="44" height="52" viewBox="0 0 44 52" fill="none" xmlns="http://www.w3.org/2000/svg">
<path d="M26.9358 51.6082C28.6613 51.6082 30.1661 50.1034 30.1661 48.3779V40.8337H32.3231C33.6174 40.8337 34.48 39.9707 34.48 38.6767V17.1294H8.61719V38.6769C8.61719 39.971 9.48001 40.8339 10.7741 40.8339H12.9313V48.3781C12.9313 50.1036 14.4357 51.6084 16.1616 51.6084C17.887 51.6084 19.3917 50.1036 19.3917 48.3781V40.8339H23.7057V48.3781C23.7055 50.1034 25.2102 51.6082 26.9358 51.6082Z" fill="#A6D864"/>
<path d="M39.8675 38.6769C41.5931 38.6769 43.0976 37.1723 43.0976 35.4466V20.3583C43.0976 18.6418 41.5932 17.1294 39.8675 17.1294C38.1418 17.1294 36.6372 18.642 36.6372 20.3583V35.4466C36.6372 37.1721 38.1417 38.6769 39.8675 38.6769Z" fill="#A6D864"/>
<path d="M3.23003 38.6769C4.95577 38.6769 6.46037 37.1723 6.46037 35.4466V20.3583C6.46037 18.6418 4.95597 17.1294 3.23003 17.1294C1.50449 17.1294 0 18.642 0 20.3583V35.4466C0.000100797 37.1721 1.50449 38.6769 3.23003 38.6769Z" fill="#A6D864"/>
<path d="M31.8918 0.325447C31.4606 -0.108483 30.8187 -0.108483 30.3875 0.325447L27.4945 3.20874L27.361 3.34199C25.6457 2.483 23.7224 2.05401 21.5806 2.04988C21.5702 2.04988 21.5598 2.04958 21.5493 2.04958H21.549C21.5381 2.04958 21.5281 2.04988 21.5173 2.04988C19.3757 2.05401 17.4525 2.483 15.7373 3.34199L15.6035 3.20874L12.7105 0.325447C12.279 -0.108483 11.6373 -0.108483 11.2061 0.325447C10.7746 0.756958 10.7746 1.39742 11.2061 1.82863L14.0046 4.62755C13.1028 5.22961 12.2852 5.96634 11.5741 6.809C9.87189 8.82675 8.78601 11.4528 8.63673 14.2981C8.63532 14.3277 8.63239 14.357 8.63108 14.3866C8.62191 14.5803 8.61768 14.7751 8.61768 14.9706H34.4804C34.4804 14.7752 34.4758 14.5804 34.467 14.3866C34.4656 14.357 34.4627 14.3277 34.461 14.2981C34.312 11.4528 33.2259 8.82664 31.5235 6.8092C30.8128 5.96654 29.9949 5.22981 29.0931 4.62775L31.8918 1.82883C32.3235 1.39742 32.3235 0.757059 31.8918 0.325447ZM16.1579 11.2045C15.2655 11.2045 14.542 10.4811 14.542 9.58867C14.542 8.69621 15.2654 7.9728 16.1579 7.9728C17.0502 7.9728 17.7738 8.69621 17.7738 9.58867C17.7738 10.4811 17.0502 11.2045 16.1579 11.2045ZM26.9401 11.2045C26.0478 11.2045 25.3242 10.4811 25.3242 9.58867C25.3242 8.69621 26.0476 7.9728 26.9401 7.9728C27.8325 7.9728 28.556 8.69621 28.556 9.58867C28.556 10.4811 27.8326 11.2045 26.9401 11.2045Z" fill="#A6D864"/>
</svg>
