<svg width="53" height="56" viewBox="0 0 53 56" fill="none" xmlns="http://www.w3.org/2000/svg">
<path d="M26.4184 0.0708008L0.175781 9.32159L4.32282 43.7608L26.4462 55.9403L48.6838 43.5957L52.8292 9.15776L26.4184 0.0708008Z" fill="#B3B3B3"/>
<path d="M50.212 11.1482L26.3574 3V53.0305L46.3486 41.9481L50.2118 11.1482H50.212Z" fill="#A6120D"/>
<path d="M3.12061 11.2949L6.6743 42.0952L26.3568 53.0303V2.99902L3.12081 11.2946L3.12061 11.2949Z" fill="#DD1B16"/>
<path d="M32.9235 29.6332L26.3571 32.709H19.4362L16.1829 40.8598L10.1318 40.9718L26.3571 4.81641L32.9235 29.6334V29.6332ZM32.2887 28.0847L26.4008 16.4089L21.5709 27.8838H26.3569L32.2887 28.0849V28.0847Z" fill="#F2F2F2"/>
<path d="M26.3569 4.81641L26.4004 16.4091L31.8805 27.8929H26.3694L26.3569 32.7017L33.9778 32.709L37.5395 40.9733L43.3296 41.0807L26.3569 4.81641Z" fill="#B3B3B3"/>
</svg>
