<svg width="48" height="65" viewBox="0 0 48 65" fill="none" xmlns="http://www.w3.org/2000/svg">
<path d="M23.5373 11.9205C20.5647 14.0112 17.1956 16.3808 15.3903 20.3013C12.2548 27.1411 21.8064 34.6019 22.2146 34.9161C22.3095 34.9892 22.423 35.0256 22.5363 35.0256C22.6565 35.0256 22.7769 34.9845 22.8746 34.9026C23.0642 34.744 23.118 34.4746 23.0042 34.2552C22.9696 34.1886 19.5411 27.5291 19.6685 22.7516C19.7136 21.0876 22.0423 19.1999 24.5076 17.2015C26.7656 15.371 29.3251 13.2963 30.8226 10.8694C34.1101 5.52719 30.4562 0.274216 30.4189 0.221694C30.2737 0.0178874 30.0059 -0.0558699 29.7768 0.0445255C29.548 0.145549 29.4212 0.392956 29.4735 0.637599C29.4809 0.672405 30.1914 4.14616 28.2142 7.72509C27.3997 9.204 25.6099 10.4628 23.5373 11.9205Z" fill="#DB380E"/>
<path d="M36.061 14.2767C36.2707 14.1188 36.3323 13.8306 36.2055 13.6007C36.0785 13.3708 35.8021 13.2694 35.5565 13.3626C35.0515 13.5546 23.1904 18.1267 23.1904 23.6509C23.1904 27.459 24.8171 29.4707 26.0049 30.9398C26.4708 31.5161 26.873 32.0136 27.0056 32.4385C27.3788 33.6627 26.4947 35.8754 26.1229 36.6248C26.0157 36.8401 26.0682 37.1012 26.2505 37.2586C26.3491 37.3436 26.4721 37.3869 26.5952 37.3869C26.7 37.3869 26.8053 37.3557 26.8963 37.2924C27.1002 37.1506 31.8805 33.7709 31.0232 29.6989C30.7038 28.1511 29.9432 27.0202 29.2721 26.0223C28.2324 24.4762 27.4815 23.3594 28.6207 21.2967C29.9554 18.8907 35.9998 14.3224 36.061 14.2767Z" fill="#DB380E"/>
<path d="M5.18651 37.4735C4.98321 38.0823 5.07921 38.6862 5.46383 39.2205C6.74962 41.0056 11.3041 41.9884 18.2888 41.9884C18.2892 41.9884 18.2894 41.9884 18.2897 41.9884C19.2361 41.9884 20.2353 41.9698 21.2587 41.9331C32.4259 41.5334 36.5679 38.0544 36.7388 37.9065C36.925 37.7453 36.9748 37.4769 36.859 37.2598C36.7432 37.0428 36.4935 36.9337 36.2549 36.9994C32.3219 38.0733 24.978 38.4545 19.8841 38.4545C14.1842 38.4545 11.2814 38.0439 10.5707 37.7407C10.9353 37.2399 13.1845 36.3458 15.9715 35.7976C16.2379 35.7453 16.421 35.4993 16.3946 35.2291C16.3682 34.959 16.1413 34.7529 15.8698 34.7529C14.236 34.7529 6.04295 34.8841 5.18651 37.4735Z" fill="#73A1FB"/>
<path d="M42.5543 33.8906C40.2509 33.8906 38.0668 35.0451 37.9748 35.094C37.7618 35.2081 37.6537 35.4523 37.7122 35.6871C37.7708 35.9214 37.9816 36.0861 38.2232 36.0864C38.2721 36.0864 43.1364 36.1262 43.5769 38.9055C43.9672 41.3032 38.9745 45.1881 37.0177 46.4828C36.8063 46.6226 36.7243 46.8928 36.8224 47.1265C36.906 47.3254 37.0996 47.4498 37.3084 47.4498C37.3449 47.4498 37.3818 47.446 37.4185 47.4382C37.8829 47.3388 48.7781 44.9379 47.6262 38.5944C46.9234 34.7067 44.48 33.8906 42.5543 33.8906Z" fill="#73A1FB"/>
<path d="M35.0822 45.706C35.1202 45.5028 35.0356 45.2961 34.8665 45.1774L32.2541 43.3475C32.1267 43.2583 31.9657 43.2303 31.8162 43.2699C31.7889 43.2768 29.057 43.995 25.0907 44.4354C23.5166 44.612 21.7534 44.7052 19.9915 44.7052C16.0262 44.7052 13.4335 44.2393 13.056 43.8975C13.0059 43.8015 13.0218 43.7579 13.0307 43.7337C13.0993 43.5429 13.467 43.3162 13.7039 43.2265C13.9657 43.1296 14.1068 42.8454 14.0254 42.5785C13.9442 42.3113 13.6689 42.1541 13.3972 42.2193C10.7766 42.8517 9.49525 43.736 9.58848 44.8477C9.75409 46.8186 14.3193 47.8303 18.1786 48.0977C18.7336 48.1356 19.3339 48.1548 19.9623 48.1548C19.9626 48.1548 19.9629 48.1548 19.9633 48.1548C26.3808 48.1548 34.6079 46.1413 34.6901 46.1208C34.891 46.0718 35.0442 45.9096 35.0822 45.706Z" fill="#73A1FB"/>
<path d="M15.3872 49.9361C15.5851 49.8074 15.6728 49.5628 15.6025 49.3375C15.5325 49.1122 15.3218 48.9642 15.0851 48.9673C14.7339 48.9766 11.6487 49.1159 11.4327 51.0802C11.3673 51.6672 11.5355 52.2036 11.9326 52.6742C13.0404 53.987 16.0306 54.7673 21.0726 55.0595C21.6691 55.0954 22.275 55.1133 22.8737 55.1133C29.2838 55.1133 33.601 53.1063 33.7818 53.0208C33.9571 52.9379 34.0727 52.7657 34.083 52.5721C34.0933 52.3786 33.9966 52.1951 33.8313 52.0939L30.5298 50.0785C30.4152 50.0086 30.2781 49.9855 30.1474 50.0122C30.1266 50.0166 28.0303 50.4514 24.8668 50.8809C24.2682 50.9623 23.5186 51.0036 22.639 51.0036C19.4789 51.0036 15.9639 50.4873 15.2898 50.1492C15.28 50.0861 15.2924 50.006 15.3872 49.9361Z" fill="#73A1FB"/>
<path d="M19.8863 61.1737C34.5692 61.1613 42.4496 58.5501 43.9677 56.907C44.5051 56.3257 44.5632 55.7753 44.5176 55.4159C44.4048 54.5313 43.599 53.9897 43.5076 53.9309C43.2872 53.7892 42.9914 53.8262 42.8195 54.0245C42.648 54.2228 42.644 54.5125 42.8161 54.7107C42.9088 54.8298 42.9623 55.0292 42.6915 55.3003C42.0846 55.8671 35.9635 57.5876 25.7718 58.1045C24.3757 58.177 22.9114 58.214 21.4197 58.2142C12.2946 58.2142 5.61633 56.9643 4.73967 56.236C5.07754 55.7505 7.43979 54.9748 9.95193 54.536C10.235 54.4867 10.4263 54.2199 10.3824 53.9359C10.3386 53.6521 10.0768 53.4567 9.79072 53.4938C9.71985 53.5034 9.47936 53.5178 9.20091 53.5349C5.05593 53.7879 0.265978 54.352 0.0160572 56.4877C-0.0598362 57.1384 0.133542 57.7292 0.591038 58.2434C1.71047 59.5012 4.92802 61.1734 19.8858 61.1734C19.886 61.1737 19.886 61.1737 19.8863 61.1737Z" fill="#73A1FB"/>
<path d="M46.8515 57.3696C46.6439 57.2736 46.3986 57.3221 46.2438 57.4892C46.2224 57.5125 44.0148 59.8208 37.3774 61.1764C34.8363 61.6855 30.0666 61.9437 23.2007 61.9437C16.3219 61.9437 9.77632 61.6731 9.71111 61.6703C9.43769 61.657 9.20386 61.8557 9.16666 62.1249C9.12935 62.3938 9.30275 62.6474 9.56674 62.7102C9.63484 62.7263 16.4945 64.3333 25.8736 64.3333C30.3721 64.3333 34.7495 63.9681 38.8846 63.2471C46.5947 61.8955 47.1345 58.0724 47.1537 57.9103C47.1806 57.6838 47.0587 57.4656 46.8515 57.3696Z" fill="#73A1FB"/>
</svg>
