<svg width="41" height="47" viewBox="0 0 41 47" fill="none" xmlns="http://www.w3.org/2000/svg">
<path d="M3.79413 41.6736L0 0L40.8746 0.0159057L37.1123 41.6418L20.4054 46.3499L3.79413 41.6736ZM34.0356 39.399L37.208 3.70608H20.4692L20.5967 43.0733L34.0356 39.399ZM18.9069 8.93914H14.8417L14.7939 30.3008L6.90277 28.1535L6.91871 33.0366L18.9069 36.2655V8.93914Z" fill="#D4B830"/>
<path opacity="0.986" d="M6.91926 33.0357L6.90332 28.1526C6.90332 28.1526 11.9409 29.5682 14.7945 30.2999L14.8423 8.9541H18.9074V36.2646L6.91926 33.0357Z" fill="#EBEBEB" fill-opacity="0.9216"/>
<path d="M20.4692 3.68994H37.208L34.0356 39.3829L20.4692 43.0571V3.68994ZM33.1748 33.4022L34.2748 20.0572L26.1445 20.9638V13.8379L34.8168 13.8061L35.1675 8.9389L22.0794 9.00252L22.2547 26.7217L30.1618 25.3697L30.0502 29.3144L22.0794 31.4299L22.1591 36.2653L33.1748 33.4022Z" fill="#FDD83C"/>
</svg>
