<svg width="58" height="62" viewBox="0 0 58 62" fill="none" xmlns="http://www.w3.org/2000/svg">
<path d="M8.84867 22.5095C9.72192 22.1651 10.6421 21.8459 11.6032 21.552C12.4462 21.2954 13.3206 21.0582 14.2228 20.8426C16.5907 20.2766 19.1488 19.8551 21.8262 19.5901C22.9956 19.4732 24.1892 19.3878 25.3985 19.3335C26.4656 19.2841 27.5471 19.2588 28.6371 19.2588C29.727 19.2588 30.8087 19.284 31.8769 19.3335C33.0873 19.3877 34.2809 19.4744 35.4504 19.5901C38.1278 19.8551 40.6847 20.2766 43.0526 20.8426C43.9547 21.0582 44.8291 21.2955 45.6722 21.552C46.6333 21.8446 47.5535 22.1651 48.4267 22.5095C54.1319 24.7617 57.2754 27.9149 57.2754 31.3871C57.2754 34.8594 54.1319 38.0126 48.4266 40.266C47.5533 40.6104 46.6345 40.9296 45.6734 41.2235C44.8303 41.4801 43.9559 41.7173 43.0537 41.9317C40.6858 42.4989 38.1278 42.9193 35.4491 43.1854C34.2796 43.301 33.0861 43.3866 31.8757 43.442C30.8085 43.4913 29.727 43.5154 28.6371 43.5154C27.5471 43.5154 26.4667 43.4913 25.3996 43.442C24.1892 43.3866 22.9968 43.301 21.8262 43.1854C19.1488 42.9204 16.5894 42.4989 14.2215 41.9317C13.3195 41.7161 12.4451 41.4801 11.6019 41.2223C10.642 40.9297 9.72181 40.6105 8.84867 40.266C3.14224 38.0126 -0.00012207 34.8595 -0.00012207 31.3871C-7.62939e-06 27.9149 3.14224 24.7617 8.84867 22.5095ZM4.42618 34.5884C5.65709 35.7386 7.53108 36.8285 9.8448 37.7427C10.624 38.0498 11.4431 38.3364 12.2982 38.599C13.1377 38.858 14.0108 39.0952 14.9142 39.3096C16.4667 39.6794 18.1083 39.9829 19.8173 40.2178C20.9567 40.3756 22.1262 40.5021 23.3198 40.5948C25.0505 40.7334 26.8294 40.8032 28.6372 40.8032C30.445 40.8032 32.2239 40.7334 33.9546 40.5961C35.1482 40.5022 36.3188 40.3757 37.4582 40.2179C39.1672 39.983 40.8088 39.6795 42.3613 39.3097C43.2647 39.0954 44.1378 38.8581 44.9773 38.5991C45.8324 38.3366 46.6514 38.0499 47.4307 37.7428C49.7443 36.8287 51.6184 35.7387 52.8493 34.5885C53.9863 33.5274 54.5632 32.4507 54.5632 31.3872C54.5632 30.3238 53.9863 29.247 52.8493 28.186C51.6184 27.0357 49.7444 25.9458 47.4307 25.0316C46.6515 24.7245 45.8324 24.4379 44.9773 24.1753C44.1378 23.9163 43.2647 23.6791 42.3613 23.4647C40.8088 23.0949 39.1672 22.7914 37.4582 22.5565C36.3188 22.3987 35.1482 22.2723 33.9546 22.1783C32.2239 22.0411 30.445 21.9712 28.6372 21.9712C26.8294 21.9712 25.0505 22.0411 23.3198 22.1796C22.1262 22.2724 20.9567 22.3988 19.8173 22.5566C18.1083 22.7916 16.4667 23.095 14.9142 23.4648C14.0108 23.6792 13.1377 23.9164 12.2982 24.1754C11.4431 24.438 10.6241 24.7247 9.8448 25.0317C7.53119 25.9459 5.65709 27.0358 4.42618 28.1861C3.2892 29.2472 2.7123 30.3239 2.7123 31.3873C2.7123 32.4507 3.2892 33.5274 4.42618 34.5884Z" fill="#5ADAFD"/>
<path d="M11.2387 43.8756C11.3637 42.9453 11.5337 41.9863 11.7456 41.0038C11.9326 40.1427 12.1518 39.2636 12.4034 38.3708C13.0636 36.0274 13.9427 33.5884 15.0167 31.1216C15.4848 30.0435 15.9922 28.9598 16.5343 27.8775C17.0115 26.9218 17.5166 25.9651 18.048 25.0135C18.5794 24.0618 19.1288 23.1298 19.6928 22.2212C20.3302 21.1908 20.9879 20.191 21.659 19.2263C23.1957 17.0178 24.8103 14.9909 26.459 13.1994C27.087 12.5169 27.7205 11.8692 28.3555 11.2581C29.0796 10.5616 29.808 9.91444 30.5344 9.31992C35.2823 5.43674 39.5679 4.22943 42.5995 5.92227C45.6312 7.61512 46.8516 11.897 46.0376 17.977C45.9126 18.9073 45.7432 19.8652 45.5313 20.8476C45.3443 21.7088 45.1251 22.5879 44.8725 23.4801C44.2133 25.8241 43.3331 28.2625 42.2596 30.731C41.7903 31.8084 41.2831 32.8922 40.7414 33.976C40.2642 34.9318 39.758 35.8878 39.2266 36.8395C38.6952 37.7911 38.1474 38.7226 37.5841 39.6303C36.9456 40.6601 36.2895 41.6595 35.6179 42.6252C34.0812 44.8336 32.4654 46.8627 30.8157 48.6536C30.1877 49.3361 29.5553 49.9844 28.9192 50.595C28.1957 51.2904 27.4684 51.9382 26.7419 52.5325C21.9923 56.4162 17.7074 57.6226 14.6756 55.9297C11.6441 54.2367 10.423 49.9559 11.2387 43.8756ZM19.6286 53.6258C21.233 53.1119 23.0983 52.0071 25.0245 50.4326C25.6725 49.902 26.3221 49.3267 26.9683 48.708C27.6037 48.1014 28.2365 47.4547 28.8641 46.7705C29.9438 45.5953 31.0091 44.3099 32.0475 42.9323C32.7407 42.0144 33.4213 41.055 34.0842 40.0581C35.049 38.6146 35.9772 37.0955 36.8586 35.5171C37.74 33.9387 38.5463 32.3515 39.2702 30.7734C39.7701 29.6855 40.2304 28.6018 40.6481 27.5301C41.2762 25.9234 41.8116 24.3421 42.2457 22.8063C42.4989 21.9131 42.7175 21.0351 42.9006 20.1759C43.0883 19.3013 43.2372 18.4465 43.3491 17.6163C43.6789 15.1506 43.6409 12.983 43.2368 11.3475C42.8646 9.83744 42.2058 8.80881 41.2773 8.29035C40.3488 7.77189 39.1274 7.7506 37.6467 8.22601C36.0423 8.73995 34.1771 9.84474 32.2509 11.4192C31.6029 11.9498 30.9533 12.5251 30.3071 13.1438C29.6717 13.7504 29.0389 14.3971 28.4113 15.0813C27.3316 16.2565 26.2662 17.5419 25.2279 18.9195C24.5346 19.8374 23.8535 20.7978 23.1896 21.7941C22.2259 23.2383 21.2977 24.7574 20.4163 26.3358C19.5349 27.9142 18.7286 29.5014 18.0058 31.08C17.5049 32.1674 17.0452 33.2501 16.6274 34.3218C15.9993 35.9285 15.464 37.5098 15.0299 39.0456C14.7767 39.9388 14.5581 40.8168 14.375 41.676C14.1873 42.5507 14.0383 43.4054 13.9265 44.2356C13.5967 46.7013 13.6346 48.8689 14.0388 50.5044C14.411 52.0145 15.0698 53.0431 15.9982 53.5616C16.9266 54.08 18.148 54.1012 19.6286 53.6258Z" fill="#5ADAFD"/>
<path d="M26.799 9.31488C27.5239 9.91137 28.2494 10.5611 28.9727 11.2589C29.6061 11.8716 30.2377 12.5211 30.8639 13.2054C32.5077 15.0013 34.1174 17.0336 35.6481 19.2462C36.3177 20.2121 36.9715 21.2144 37.6057 22.2454C38.1665 23.1546 38.7134 24.088 39.2422 25.0411C39.7711 25.9942 40.2738 26.9522 40.7488 27.9103C41.2887 28.995 41.7919 30.0808 42.2582 31.1595C43.3255 33.6292 44.1974 36.0696 44.8513 38.4147C45.1005 39.3081 45.3172 40.1879 45.502 41.0496C45.7124 42.0319 45.8786 42.992 46.0011 43.9227C46.7998 50.0041 45.5677 54.2827 42.5315 55.9673C39.4953 57.6519 35.2129 56.433 30.4744 52.5375C29.7496 51.941 29.0247 51.2924 28.3014 50.5946C27.668 49.9819 27.0364 49.3324 26.4112 48.6475C24.7663 46.8522 23.1577 44.8193 21.6253 42.6062C20.9568 41.6397 20.303 40.6375 19.6672 39.606C19.1064 38.6968 18.5606 37.7628 18.0318 36.8097C17.503 35.8566 16.9999 34.9002 16.5253 33.9432C15.9865 32.8579 15.4827 31.7737 15.0159 30.694C13.9486 28.2243 13.0755 25.7818 12.4226 23.4361C12.1735 22.5427 11.9556 21.6636 11.7719 20.8013C11.5621 19.8199 11.3948 18.8604 11.2724 17.9298C10.4743 11.8467 11.7068 7.56917 14.7431 5.88448C17.7794 4.19994 22.0611 5.41775 26.799 9.31488ZM14.0914 11.3081C13.6828 12.9425 13.6389 15.1099 13.9621 17.5766C14.0716 18.4069 14.2184 19.2622 14.4036 20.1374C14.5845 20.9971 14.8007 21.8757 15.0515 22.7696C15.4813 24.3065 16.0124 25.8892 16.6362 27.4976C17.051 28.5705 17.5078 29.6545 18.0058 30.7432C18.7243 32.3237 19.5263 33.9131 20.4034 35.4939C21.2805 37.0747 22.2047 38.5963 23.1644 40.0431C23.8256 41.0412 24.5041 42.0035 25.1949 42.9232C26.2295 44.3037 27.2913 45.5919 28.3679 46.77C28.9937 47.4559 29.6247 48.1043 30.2585 48.7127C30.903 49.333 31.551 49.9101 32.1976 50.4425C34.1194 52.0221 35.9817 53.132 37.5847 53.6503C39.0642 54.1296 40.2856 54.1117 41.2155 53.5958C42.1454 53.0798 42.8071 52.0529 43.1832 50.544C43.5918 48.9096 43.6357 46.7421 43.3125 44.2754C43.203 43.4451 43.0562 42.5898 42.8709 41.7147C42.6901 40.8549 42.4739 39.9764 42.2231 39.0825C41.7932 37.5455 41.2622 35.9628 40.6384 34.3544C40.2236 33.2816 39.7662 32.1966 39.2692 31.1073C38.5496 29.5274 37.7476 27.938 36.8705 26.3572C35.9934 24.7764 35.0693 23.2548 34.1084 21.8086C33.4482 20.81 32.7702 19.8487 32.0795 18.9289C31.0449 17.5485 29.983 16.2603 28.9065 15.0822C28.2807 14.3963 27.6497 13.7479 27.0159 13.1395C26.3714 12.5191 25.7234 11.9421 25.0768 11.4096C23.155 9.83009 21.2926 8.72015 19.6896 8.20188C18.2101 7.72251 16.9888 7.74044 16.0589 8.25638C15.1291 8.77228 14.4675 9.79911 14.0914 11.3081Z" fill="#5ADAFD"/>
<path d="M28.6371 36.7692C25.6645 36.7692 23.2547 34.3595 23.2547 31.3868C23.2547 28.4142 25.6645 26.0044 28.6371 26.0044C31.6097 26.0044 34.0195 28.4142 34.0195 31.3868C34.0195 34.3595 31.6097 36.7692 28.6371 36.7692Z" fill="#5ADAFD"/>
</svg>
