<svg width="15" height="16" viewBox="0 0 15 16" fill="none" xmlns="http://www.w3.org/2000/svg">
<path d="M4.5 12H4C4 12.2761 4.22386 12.5 4.5 12.5V12ZM10.5 12V12.5C10.7761 12.5 11 12.2761 11 12H10.5ZM4.5 12.5H10.5V11.5H4.5V12.5ZM11 12V10H10V12H11ZM4 10V12H5V10H4ZM7.5 6.5C5.567 6.5 4 8.067 4 10H5C5 8.61929 6.11929 7.5 7.5 7.5V6.5ZM11 10C11 8.067 9.433 6.5 7.5 6.5V7.5C8.88071 7.5 10 8.61929 10 10H11ZM14 12C14 12.2451 13.8862 12.5204 13.594 12.8165C13.2997 13.1147 12.8491 13.4061 12.2528 13.6617C11.0619 14.1721 9.3819 14.5 7.5 14.5V15.5C9.48409 15.5 11.3041 15.1563 12.6467 14.5808C13.3171 14.2935 13.8916 13.9385 14.3058 13.5189C14.722 13.0971 15 12.5833 15 12H14ZM7.5 14.5C5.6181 14.5 3.93808 14.1721 2.74721 13.6617C2.15089 13.4061 1.70026 13.1147 1.40597 12.8165C1.1138 12.5204 1 12.2451 1 12H0C0 12.5833 0.27795 13.0971 0.694221 13.5189C1.10837 13.9385 1.68286 14.2935 2.35329 14.5808C3.69593 15.1563 5.51591 15.5 7.5 15.5V14.5ZM1 12C1 11.758 1.1108 11.4868 1.39448 11.1952C1.68043 10.9012 2.11881 10.6128 2.70035 10.3585L2.29965 9.44229C1.644 9.72903 1.08238 10.0818 0.677627 10.4979C0.270611 10.9164 0 11.4245 0 12H1ZM12.2996 10.3585C12.8812 10.6128 13.3196 10.9012 13.6055 11.1952C13.8892 11.4868 14 11.758 14 12H15C15 11.4245 14.7294 10.9164 14.3224 10.4979C13.9176 10.0818 13.356 9.72903 12.7004 9.44229L12.2996 10.3585ZM7.5 4.5C6.67157 4.5 6 3.82843 6 3H5C5 4.38071 6.11929 5.5 7.5 5.5V4.5ZM9 3C9 3.82843 8.32843 4.5 7.5 4.5V5.5C8.88071 5.5 10 4.38071 10 3H9ZM7.5 1.5C8.32843 1.5 9 2.17157 9 3H10C10 1.61929 8.88071 0.5 7.5 0.5V1.5ZM7.5 0.5C6.11929 0.5 5 1.61929 5 3H6C6 2.17157 6.67157 1.5 7.5 1.5V0.5Z" fill="#403845"/>
</svg>
