<svg width="15" height="16" viewBox="0 0 15 16" fill="none" xmlns="http://www.w3.org/2000/svg">
<path d="M3.5 5.94991L3.07817 5.68148L3 5.80431V5.94991H3.5ZM6.19761 1.71082L6.61944 1.97926L6.19761 1.71082ZM8.86455 3.22082L8.41734 2.99721V2.99721L8.86455 3.22082ZM7.5 5.94991L7.05279 5.72631C6.97529 5.8813 6.98357 6.06537 7.07467 6.21278C7.16578 6.36019 7.32671 6.44991 7.5 6.44991V5.94991ZM14.5 10.9499L14.9 11.2499L15 11.1166V10.9499H14.5ZM12.1 14.1499L12.5 14.4499L12.1 14.1499ZM8.28158 1.21886L8.53883 0.790115L8.53883 0.790115L8.28158 1.21886ZM0 5.44991V15.4499H1V5.44991H0ZM3.92183 6.21835L6.61944 1.97926L5.77577 1.44238L3.07817 5.68148L3.92183 6.21835ZM8.41734 2.99721L7.05279 5.72631L7.94721 6.17352L9.31176 3.44442L8.41734 2.99721ZM7.5 6.44991H12.5V5.44991H7.5V6.44991ZM14 7.94991V10.9499H15V7.94991H14ZM14.1 10.6499L11.7 13.8499L12.5 14.4499L14.9 11.2499L14.1 10.6499ZM10.5 14.4499H5.5V15.4499H10.5V14.4499ZM4 12.9499V5.94991H3V12.9499H4ZM12.5 6.44991C13.3284 6.44991 14 7.12149 14 7.94991H15C15 6.5692 13.8807 5.44991 12.5 5.44991V6.44991ZM5.5 14.4499C4.67157 14.4499 4 13.7783 4 12.9499H3C3 14.3306 4.11929 15.4499 5.5 15.4499V14.4499ZM8.02433 1.64761C8.48782 1.9257 8.65906 2.51376 8.41734 2.99721L9.31176 3.44442C9.78718 2.4936 9.45039 1.33705 8.53883 0.790115L8.02433 1.64761ZM11.7 13.8499C11.4167 14.2276 10.9721 14.4499 10.5 14.4499V15.4499C11.2869 15.4499 12.0279 15.0794 12.5 14.4499L11.7 13.8499ZM6.61944 1.97926C6.92046 1.50623 7.54354 1.35914 8.02433 1.64761L8.53883 0.790115C7.59324 0.222766 6.3678 0.512055 5.77577 1.44238L6.61944 1.97926Z" fill="#333333"/>
</svg>
